<svg width="285" height="288" viewBox="0 0 285 288" fill="none" xmlns="http://www.w3.org/2000/svg">
<path class="mark-one" d="M113.784 74.2639L143 3.5L172.194 74.2109L242.5 44.5L212.78 116.187L282 145.5L213.386 173.981L242.5 244.5L171.736 215.188L143 284.5L114.243 215.135L43.5 244.5L72.5625 174.107L3.5 145.5L73.1672 116.059L43.5 44.5L113.784 74.2639Z" fill="#38766E"/>
<path class="mark-one" d="M43.5 244.5L143 3.5L242.5 244.5M43.5 244.5L143 145.5M43.5 244.5L282 145.5M143 145.5H3.5M143 145.5L242.5 44.5M3.5 145.5L242.5 244.5M3.5 145.5H282M3.5 145.5L242.5 44.5M242.5 244.5L43.5 44.5M43.5 44.5L143 284.5L242.5 44.5M43.5 44.5L282 145.5" stroke="#F4F4F5" stroke-width="2"/>

</svg>
